<svg xmlns="http://www.w3.org/2000/svg" viewBox="0 0 283.4 57" width="283.4" height="57">
  <style>
    .st0{fill:#D4002D;} .st1{fill:#000000;}
  </style>
  <path class="st0" d="M76.4 49.1v-7.3h1.4v7.3c0 2.5.4 3.1 2.2 3.1.6 0 1.2-.2 1.5-.3l1.5-.6v-9.6h1.4v9.7c0 .6.1 1.8.1 1.8h-1c-.1-.2-.3-.4-.4-.8l-1.6.7c-.4.2-1.1.4-1.7.4-2.6 0-3.4-1.2-3.4-4.4zM87.2 46.7c0-.6-.1-1.7-.1-1.7h.9c.2.2.2.4.4.8l1.5-.7c.4-.2.8-.3 1.3-.3 1.3 0 2.2.7 2.2 2.5v6.1h-1.3v-5.6c0-1.3-.2-1.8-1.2-1.8-.5 0-.8.1-.8.1l-1.6.7v6.6h-1.3v-6.7zM95.7 42.6c0-.5.4-.9.9-.9s.9.4.9.9-.4.9-.9.9-.9-.4-.9-.9zm.2 2.4h1.3v8.4h-1.3V45zM99 45h1.4l2.2 6.6.1.5.1-.5 1.9-6.6h1.3l-2.6 8.4h-1.5L99 45zM107.1 49.2c0-4 2-4.5 3.2-4.5 1.4 0 3.2.5 3.2 3.6v1.1h-5.1c.1 2.4.7 2.9 1.9 2.9s2.5-.6 2.5-.6l.4 1s-1.3.8-3.2.8c-1.1 0-2.9-.4-2.9-4.3zm5.1-.9c0-1.9-.8-2.5-1.8-2.5-1.2 0-1.9.8-1.9 2.5h3.7zM115.7 46.5c0-.4-.1-1.5-.1-1.5h.9c.1.3.3.7.4 1.1l1.1-.9c.3-.2.6-.4 1.2-.4.3 0 .6.1.8.2l-.4 1.2c-.2 0-.4-.1-.6-.1-.4 0-.6.2-.7.2l-1.4.9v6.2h-1.3l.1-6.9zM120.9 52.7l.4-1s1.3.6 2.5.6c.8 0 1.7-.1 1.7-1.2 0-.4-.2-.9-.7-1.1-.6-.3-1.5-.6-2.3-1-.8-.4-1.3-1-1.3-2.1 0-1.4 1-2.2 2.6-2.2.9 0 1.9.2 2.7.7l-.4 1c-.6-.4-1.5-.6-2.3-.6-1 0-1.4.4-1.4 1.1 0 .4.2.7.5.9.7.4 1.7.7 2.6 1.2.7.4 1.3.9 1.3 2.1 0 1.7-1.2 2.4-2.7 2.4-1.9 0-3.2-.8-3.2-.8zM128.8 42.6c0-.5.4-.9.9-.9s.9.4.9.9-.4.9-.9.9-.9-.4-.9-.9zm.2 2.4h1.3v8.4H129V45zM133.5 51.2V46h-1.3v-1h1.3v-2.1l1.3-.2V45h2v1.1h-2v5.2c0 1 .1 1.2.8 1.2.5 0 1.2-.2 1.2-.2l.3.9s-1 .4-1.7.4c-1.4-.1-1.9-.5-1.9-2.4zM137.7 56.7l.3-1s.6.2 1.1.2c.8 0 1.1-.4 1.4-1.1l.5-1.6-3-8.4h1.4l2.1 6.1.1.5.1-.5 1.9-6.1h1.3l-3.3 10.5c-.4 1.2-1.1 1.6-2.1 1.6-1 .1-1.8-.2-1.8-.2zM150.4 49.2c0-3.8 2.1-4.5 3.5-4.5s3.5.7 3.5 4.5c0 3.7-2.1 4.3-3.5 4.3-1.5 0-3.5-.6-3.5-4.3zm5.6 0c0-2.5-.9-3.4-2.2-3.4-1.2 0-2.1.9-2.1 3.4s.9 3.2 2.2 3.2c1.2 0 2.1-.6 2.1-3.2zM160 46.1h-1.3V45h1.3v-1.8c0-1.5.7-2.3 1.9-2.3.9 0 1.7.3 1.7.3l-.3.9s-.6-.2-1.2-.2-.9.4-.9 1.4V45h2v1.1h-2v7.3H160v-7.3zM172.2 41.8h1.4l3.9 11.5H176l-1.1-3.1h-4.3l-1 3.1h-1.4l4-11.5zm2.4 7.2l-1.6-4.9-.1-.8-.1.8L171 49h3.6zM179.2 46.7c0-.6-.1-1.8-.1-1.8h.9l.3.6 1.6-.6s.5-.2 1.1-.2c1.5 0 2.6 1.1 2.6 4.4 0 3.7-2 4.4-3.3 4.4-.8 0-1.4-.2-1.8-.5v3.7l-1.3.3V46.7zm5.1 2.4c0-1.6-.4-3.2-1.4-3.2-.5 0-.9.2-.9.2l-1.5.5v5.3c.3.2.7.5 1.6.5 1.3 0 2.2-.8 2.2-3.3zM187.9 46.7c0-.6-.1-1.8-.1-1.8h.9l.3.6 1.6-.6s.5-.2 1.1-.2c1.5 0 2.6 1.1 2.6 4.4 0 3.7-2 4.4-3.3 4.4-.8 0-1.4-.2-1.8-.5v3.7l-1.3.3V46.7zm5.1 2.4c0-1.6-.4-3.2-1.4-3.2-.5 0-.9.2-.9.2l-1.5.5v5.3c.3.2.7.5 1.6.5 1.3 0 2.2-.8 2.2-3.3zM196.6 51.3V41.1l1.3-.3v10.4c0 .8.1 1.2.5 1.2s.8-.1.8-.1l.3.9s-.6.4-1.4.4c-1.1-.1-1.5-.7-1.5-2.3zM201 42.6c0-.5.4-.9.9-.9s.9.4.9.9-.4.9-.9.9-.9-.4-.9-.9zm.2 2.4h1.3v8.4h-1.3V45zM204.8 49.2c0-4 2-4.5 3.2-4.5 1.4 0 3.2.5 3.2 3.6v1.1h-5.1c.1 2.4.7 2.9 1.9 2.9s2.5-.6 2.5-.6l.4 1s-1.3.8-3.2.8c-1.2 0-2.9-.4-2.9-4.3zm5-.9c0-1.9-.8-2.5-1.8-2.5-1.2 0-1.9.8-1.9 2.5h3.7zM213.1 49.1c0-3.8 1.9-4.4 3.4-4.4.8 0 1.5.3 1.8.6v-4.2l1.3-.3v10.7c0 .6.1 1.8.1 1.8h-.9l-.3-.6-1.8.7c-.3.1-.6.2-.9.2-1.6-.1-2.7-1.2-2.7-4.5zm3.5 3.2l1.7-.5v-5.3c-.3-.2-.8-.6-1.6-.6-1.3 0-2.3.7-2.3 3.3 0 1 .1 3.2 1.4 3.2.4 0 .8-.1.8-.1zM225.7 52.7l.4-1.1c.7.3 1.7.7 3 .7 1.4 0 2.2-.6 2.2-1.9 0-1.1-.5-1.6-1.1-1.9-.9-.4-1.6-.6-2.6-1.1-1.1-.5-1.7-1.2-1.7-2.8 0-1.9 1.3-3 3.2-3 1.2 0 2.3.4 3.3.8l-.5 1.1c-.8-.3-1.7-.7-2.8-.7-1.3 0-1.9.7-1.9 1.8 0 .8.4 1.3.9 1.5.9.5 1.6.7 2.7 1.2 1 .5 2 1.3 2 3.1 0 2-1.4 3.2-3.5 3.2-1.7-.1-2.9-.6-3.6-.9zM234.4 49c0-3.9 2.1-4.3 3.2-4.3s2 .3 2.4.5l-.4 1c-.4-.2-1.1-.4-2-.4-1.2 0-1.9.9-1.9 3.2 0 2.3.6 3.3 1.9 3.3 1 0 1.8-.3 2.2-.5l.4 1c-.5.3-1.4.7-2.8.7s-3-.5-3-4.5zM241.8 42.6c0-.5.4-.9.9-.9s.9.4.9.9-.4.9-.9.9-.9-.4-.9-.9zm.2 2.4h1.3v8.4H242V45zM245.5 49.2c0-4 2-4.5 3.2-4.5 1.4 0 3.2.5 3.2 3.6v1.1h-5.1c.1 2.4.7 2.9 1.9 2.9s2.5-.6 2.5-.6l.4 1s-1.3.8-3.2.8c-1.1 0-2.9-.4-2.9-4.3zm5.1-.9c0-1.9-.8-2.5-1.8-2.5-1.2 0-1.9.8-1.9 2.5h3.7zM254.2 46.7c0-.6-.1-1.7-.1-1.7h.9l.4.8 1.5-.7c.4-.2.8-.3 1.3-.3 1.3 0 2.2.7 2.2 2.5v6.1H259v-5.6c0-1.3-.2-1.8-1.2-1.8-.5 0-.8.1-.8.1l-1.6.7v6.6h-1.3v-6.7zM262.5 49c0-3.9 2.1-4.3 3.2-4.3s2 .3 2.4.5l-.4 1c-.4-.2-1.1-.4-2-.4-1.2 0-1.9.9-1.9 3.2 0 2.3.6 3.3 1.9 3.3 1 0 1.8-.3 2.2-.5l.4 1c-.5.3-1.4.7-2.8.7s-3-.5-3-4.5zM269.7 49.2c0-4 2-4.5 3.2-4.5 1.4 0 3.2.5 3.2 3.6v1.1H271c.1 2.4.7 2.9 1.9 2.9s2.5-.6 2.5-.6l.4 1s-1.3.8-3.2.8c-1.2 0-2.9-.4-2.9-4.3zm5-.9c0-1.9-.8-2.5-1.8-2.5-1.2 0-1.9.8-1.9 2.5h3.7zM277.6 52.7l.4-1s1.3.6 2.5.6c.8 0 1.7-.1 1.7-1.2 0-.4-.2-.9-.7-1.1-.6-.3-1.5-.6-2.3-1-.8-.4-1.3-1-1.3-2.1 0-1.4 1-2.2 2.6-2.2.9 0 1.9.2 2.7.7l-.4 1c-.6-.4-1.5-.6-2.3-.6-1 0-1.4.4-1.4 1.1 0 .4.2.7.5.9.7.4 1.7.7 2.6 1.2.7.4 1.3.9 1.3 2.1 0 1.7-1.2 2.4-2.7 2.4-1.9 0-3.2-.8-3.2-.8z"/>
  <path class="st1" d="M0 0h16v4H4.6v9.3h10.7v3.9H4.6v13.2H0zM22 0h4.7v12.5h11.1V0h4.6v30.4h-4.6V16.3H26.7v14.1H22z"/>
  <path class="st0" d="M57.2 0v53.3h4.3V0z"/>
  <path class="st1" d="M128.6 0h-5.1l-9.9 30.4h4.6l2.4-7.8h10.2l2.5 7.8h5.2L128.6 0zm-6.9 18.9l3.7-11.4.4-2.7.4 2.7 3.6 11.4h-8.1z"/>
  <g>
    <path class="st1" d="M99.5-.6c-6.6 0-11.7 3.3-11.7 16 0 12.8 4.9 15.6 11.7 15.6 6.8 0 11.7-2.8 11.7-15.6 0-12.7-5-16-11.7-16m0 27.7c-5.6 0-6.9-4.7-6.9-11.7 0-7.5 1.5-12.1 6.9-12.1 5.5 0 6.9 4.6 6.9 12.1 0 7-1.4 11.7-6.9 11.7M142.4 0h6.5l9.9 21 1.2 4.3-.3-4.4V0h4.7v30.4h-6L148.1 9.2l-1.4-4.4.3 4.4v21.2h-4.6zM171.7 0h6.4l10 21 1.2 4.3-.3-4.4V0h4.6v30.4h-6L177.4 9.2 176 4.8l.3 4.4v21.2h-4.6zM201 0h16.7v4h-12.1v8.7h11v3.9h-11v9.5h12.5v4.3H201zM223.7 19.3V0h4.7v19.2c0 6.1 1 7.6 5 7.6 1.4 0 2.9-.4 3.8-.7l3.3-1.2V0h4.6v25.4c0 1.6.3 4.9.3 4.9h-3.3c-.4-.5-.7-1.2-1.1-2l-4 1.7c-1.2.5-3.1 1-4.7 1-6.8 0-8.6-3.4-8.6-11.7M254.1 0h6.8l6.2 22.3.6 3.7.6-3.7L274.2 0h6.7l2.5 30.4h-4.8l-1.7-21.2-.1-4.8-.8 4.8-6 21.2h-5l-5.9-21.2-.9-4.8-.2 4.8-1.6 21.2h-4.8zM76.3 0v24.1c0 4.7-2.4 5.8-5.1 7l1.4 3.5c4-1.3 8.4-2.9 8.4-10V0h-4.7z"/>
  </g>
</svg>