<?xml version="1.0" encoding="UTF-8"?>
<!-- Generator: Adobe Illustrator 18.0.0, SVG Export Plug-In . SVG Version: 6.00 Build 0)  -->
<!DOCTYPE svg PUBLIC "-//W3C//DTD SVG 1.1//EN" "http://www.w3.org/Graphics/SVG/1.1/DTD/svg11.dtd">
<svg version="1.1" id="Ebene_1" xmlns:x="http://ns.adobe.com/Extensibility/1.0/" xmlns:i="http://ns.adobe.com/AdobeIllustrator/10.0/" xmlns:graph="http://ns.adobe.com/Graphs/1.0/" xmlns="http://www.w3.org/2000/svg" xmlns:xlink="http://www.w3.org/1999/xlink" x="0px" y="0px" viewBox="0 0 850.6 242.5" enable-background="new 0 0 850.6 242.5" xml:space="preserve">
<metadata>
	<sfw xmlns="http://ns.adobe.com/SaveForWeb/1.0/">
		<slices/>
		<sliceSourceBounds width="850.6" height="242.5" bottomLeftOrigin="true" x="174.8" y="-720.9"/>
	</sfw>
</metadata>
<g>
	<path fill="#7C7C7C" d="M804,166.5l-1.1-0.6l-0.2-25.1c-0.2-21.7-0.3-25.2-0.9-25.5c-0.4-0.2-2.4-0.4-4.4-0.4   c-5.3,0-5.2,0.2-5.2-10.3c0-6.3,0.2-8.5,0.6-9.2c0.5-0.7,1.4-0.9,4.7-1.1c2.2-0.1,4.3-0.4,4.7-0.7c0.4-0.3,0.6-3,0.6-10.2   c0-8.3,0.1-9.9,0.7-10.5c0.6-0.6,2.6-0.7,14.1-0.7c10.9,0,13.6,0.1,14.3,0.6c0.8,0.6,0.9,1.4,1.1,10.9l0.2,10.2l7.9,0.2   c6.8,0.2,8,0.3,8.7,1c0.7,0.7,0.8,1.8,0.8,9.6c0,8.1-0.1,8.8-0.9,9.4c-0.7,0.5-2.6,0.7-8.3,0.7c-5.6,0-7.5,0.1-7.9,0.6   c-0.3,0.4-0.5,8.3-0.6,25.4c-0.1,19.6-0.3,25-0.7,25.4C831.2,167.2,805.7,167.4,804,166.5z M312.3,166.5l-1.1-0.6l-0.1-34.9   c-0.1-29.6,0-35,0.5-35.8c0.6-0.9,1.3-0.9,14.5-0.9c16.4,0,15.1-0.5,15.1,6.1c0,3.1,0.2,4.3,0.6,4.5c0.3,0.1,2-1.1,3.6-2.7   c5.4-5.2,10.9-7.7,18.9-8.7c5.7-0.7,10.1-0.4,11.2,0.6c0.7,0.7,0.8,2,0.9,9.1c0.2,9.7,0,11.1-1.5,12.1c-1,0.7-1.5,0.7-6,0   c-6.1-0.9-9-0.9-12.4,0c-5.7,1.5-10.5,4.7-12.8,8.7c-2.2,3.7-2.5,6.8-2.5,24.6c0,13.3-0.1,16.5-0.7,17.2c-0.6,0.8-1.4,0.9-13.9,1   C316.6,167.1,313.2,167,312.3,166.5z M1.8,166.8C0,166.1,0,166.4,0,130.7c0-29,0.1-34.6,0.6-35.3c0.6-0.8,1.3-0.9,14.5-0.9   c16.1,0,15.1-0.3,15.1,4.9c0,2.5,0.1,3.1,0.7,3.1c0.4,0,2.6-1.2,4.8-2.7c4.6-3,10.2-5.3,15.2-6c4.5-0.7,16.7-0.3,20.3,0.7   c5.4,1.5,10.2,4.2,14.2,8.1c2,2,3.8,3.6,4,3.6c0.2,0,1.8-1.4,3.5-3.1c8.1-8.1,20.1-11.5,33.4-9.7c12.2,1.7,19.8,8.2,22.1,19.1   c1,4.6,1,52.3,0,53.6c-0.6,0.8-1.3,0.9-14.4,0.9c-10.7,0-13.9-0.1-14.4-0.6c-0.5-0.5-0.6-5.3-0.8-22.2l-0.2-21.7l-1.4-2.7   c-2.8-5.6-8.3-8.2-14.9-7.2c-7.1,1.1-11.1,5.5-12.3,13.3c-0.3,1.7-0.5,10.7-0.5,21.1c0,14.9-0.1,18.3-0.7,19   c-0.6,0.8-1.3,0.9-14.4,0.9c-10.7,0-13.9-0.1-14.4-0.6c-0.5-0.5-0.6-5.4-0.8-22.5c-0.2-21.9-0.2-21.9-1.3-24.3   c-2.9-6.4-11.8-9.5-18.7-6.3c-5.4,2.5-7.6,5.3-8.4,11.1c-0.2,1.7-0.5,11.6-0.5,21.9c0,15.5-0.1,19-0.7,19.7   c-0.6,0.8-1.4,0.9-13.9,1C8.5,167,2.2,167,1.8,166.8z M721,147.1c5.7-1.6,10.6-5.4,12.9-10c1.6-3.2,1.6-9.5,0.1-12.7   c-2.9-5.9-8.8-9.8-16.4-10.9c-9.1-1.3-18.6,3.4-22.3,10.9c-1.6,3.3-1.6,9,0.1,12.6c2.3,5,7.9,9.2,13.7,10.4   C714.1,148.4,716.5,148.3,721,147.1z M695.8,168.5c-14.1-3.1-24.6-11-30.1-22.6c-2.2-4.6-3-8-3.3-13.7c-1-18.2,10.9-33.4,30.4-38.8   c5.7-1.6,17.4-2,23.2-0.9c4.9,1,9.8,3,14,5.8c1.8,1.2,3.5,2.2,3.8,2.2c0.2,0,0.6-1.2,0.7-2.6c0.1-1.4,0.5-2.8,0.8-3.1   c0.3-0.3,4.9-0.6,13.8-0.6c11.5-0.1,13.5,0,14.4,0.6l1.1,0.7v70.1l-1.1,0.7c-0.9,0.6-2.9,0.7-14.4,0.6c-9.3-0.1-13.5-0.3-13.9-0.7   c-0.3-0.3-0.6-1.9-0.8-3.6c-0.1-1.7-0.4-3-0.6-3c-0.2,0-1.7,1-3.3,2.3c-3.2,2.6-7.9,5-12,6.2C714.2,169.5,700.9,169.7,695.8,168.5z    M218.6,169.6c-14.2-1.9-22.1-5-28-10.9c-2-1.9-3.7-4.2-4.5-5.8c-2.6-5.4-2.6-5.9-2.6-32.6c0-22.3,0.1-24.7,0.8-25.2   c1.1-0.9,27.8-0.9,28.7,0c0.5,0.5,0.6,5.4,0.8,22.7c0.3,24.6,0.2,24,3.5,27.5c2.1,2.2,5.2,3.5,9.6,4c6.5,0.8,12.7-0.8,15.9-4   c3.4-3.4,3.3-2.8,3.5-27.5c0.2-17.3,0.4-22.2,0.8-22.7c0.9-0.9,27.6-0.9,28.7,0c0.7,0.6,0.8,2.9,0.8,25.2c0,20.6-0.1,25.1-0.7,27.3   c-2.3,9.1-9.4,15.6-20.7,19.2c-7.1,2.2-11,2.7-23.6,2.8C225.2,169.7,219.3,169.7,218.6,169.6z"/>
	<g>
		<path fill="#7C7C7C" d="M528.8,131c-2.3-6.5-4-12.1-4.3-14.9c-0.8-5.7-0.6-20.9,0.3-23.7c1.3-4,2.2-5.5,4.2-6.8l1.9-1.3l3.8,0.6    c4.6,0.7,6,0.4,7.9-1.6c3.4-3.6,3.9-3.8,11.7-4.1c3.9-0.2,11.4-0.5,16.7-0.8c12.1-0.6,39.2,0.2,42.1,1.2c1,0.4,2.7,0.7,3.7,0.7    c1.3,0,2.7,0.5,4.9,1.8c1.7,1,4,1.9,5.1,2.1c3.3,0.5,3.6,0.6,4.3,2.9c1.2,3.4,0.9,8.1-0.5,11.1c-1.6,3.3-1.5,6.6,0.1,11.6    c1.5,4.7,1.8,9.8,0.5,11.2c-0.5,0.5-1.6,1.1-2.6,1.2c-1,0.2-2.6,0.8-3.5,1.5c-4.3,2.9-8.3,3.3-12.2,1c-2.3-1.3-3-1.4-9.7-1.9    c-8.1-0.6-32.1-0.3-39.2,0.5c-2.4,0.3-6.9,0.7-10.1,1c-7.4,0.6-9.6,1.3-15.9,4.6c-3.8,2-5.6,2.7-7,2.7    C529.7,131.6,528.9,131.3,528.8,131z"/>
		<path fill="#7C7C7C" d="M493.7,240.6c-0.5-1.1-1.2-3.2-1.7-4.5c-0.4-1.3-1.1-3.3-1.5-4.3c-0.4-1.1-0.7-3.1-0.7-4.9    c0-2.8,0.2-3.2,1.5-4.8c2-2.3,2.5-3.6,4.4-11.1c2.7-11,2.6-12.2-1.1-13.2c-2.2-0.6-9.2-3-18.1-6.3c-3-1.1-9.9-4.2-15.2-6.9    c-5.3-2.7-10.2-4.9-10.8-4.9s-1.7,0.5-2.5,1c-2.9,2.2-12,12.4-14.5,16.3c-2.2,3.4-3.3,4.6-6.4,7c-4.1,3.1-5.7,3.9-6.9,3.5    c-1.1-0.4-2.6-3.1-2.6-4.7c0-0.8-0.5-2.5-1.1-3.8c-0.8-1.7-1.1-3.2-1.1-5.1c0-2.4,0.2-2.9,1.6-4.6c0.9-1,1.7-2.2,1.9-2.7    c0.2-0.4,2.4-2.6,5-4.9c2.6-2.3,5.4-5,6.4-6c3.4-3.6,8.2-10,8.2-10.9c0-0.5-0.9-2.3-2.1-4c-2.7-4.1-4.1-7.3-5.8-13.5    c-1.8-6.4-1.9-6.6-3.8-7c-2.5-0.5-3.8,0.1-6.8,3c-1.6,1.6-4.2,3.4-6.2,4.4c-1.9,0.9-4.2,2.2-5.2,2.8c-1,0.6-2.1,1.1-2.6,1.1    c-1,0-2.3-2.6-3.2-6.1c-0.3-1.2-0.8-2.8-1.2-3.5c-0.4-0.7-0.7-1.8-0.7-2.4c0-1.7,1.3-4.3,2.2-4.6c0.5-0.2,1.3-1.1,1.7-2.2    c0.9-1.9,3.6-4.9,4.6-4.9c0.3,0,0.9-0.4,1.3-0.9c0.4-0.5,1.6-1,2.7-1.1c3.3-0.4,11.2-3.6,12-4.9c0.2-0.3,0.9-4.6,1.6-9.5    c0.7-5,1.6-10.1,2-11.3c1.4-4.4,1.1-4.7-6.2-9.1c-2.8-1.6-5-3.3-5.3-4c-4.2-8.2-4.6-10.8-2.7-16.7c1.2-3.7,2.8-6,5.5-7.8    c1.5-1,2.2-1.2,5.1-1.2c3.1,0,3.4,0.1,4.7,1.4c3.3,3.5,11.4,10.1,12.3,9.9c0.6-0.1,1.8-1.4,3.1-3.3c3.4-4.9,6.5-8.3,10.8-11.6    c4.9-3.8,5.6-4.5,5.6-6.2c0-0.7-0.7-3.4-1.7-6c-1-3-1.8-6.1-2-8.4c-0.2-2.3-0.8-4.8-1.6-6.7c-0.7-1.6-1.4-4-1.5-5.3    c-0.2-2.1-0.1-2.6,1-4c0.7-0.9,2.3-2.3,3.5-3.1c2.1-1.3,2.5-1.4,4.9-1.2c2.4,0.3,2.8,0.5,4.5,2.4c1,1.1,2.1,2.1,2.4,2.1    c0.7,0,2.7,2.6,5.4,7.3c1.3,2.1,2.6,4,3.1,4.3c0.4,0.2,1.6,1.7,2.7,3.2c1,1.5,2.1,2.7,2.3,2.7c0.3,0,2.1-0.8,4-1.8    c4.7-2.4,6.7-3,14.4-4.4c3.6-0.7,6.9-1.5,7.4-1.9c1.2-1.1,1.1-2.4-1-13.4c-0.3-1.4-0.8-3.7-1.2-5c-1.1-3.9-0.5-6.6,1.8-9    c2.7-2.8,4.7-3.6,8.1-3.3c1.5,0.1,3.1,0.5,3.5,0.9c0.4,0.3,2.4,1.3,4.5,2.2l3.7,1.6l0.7,3c0.6,2.4,0.6,3.6,0.3,6.3    c-0.4,2.8-0.3,3.9,0.3,6.7c1.3,5.1,2.1,7.5,2.9,8.2c0.4,0.3,2.2,0.8,4,1.1c11.9,2,17.9,3.5,21.9,5.5c1.9,1,4.5,1.8,6.9,2.2    c6,1.1,7.5,2,10.1,6.5c1.2,2.1,3,4.7,4,5.7c2.3,2.3,3,4.1,2.6,6.3c-0.6,3.3-1.9,3.5-6.5,1.1c-2.6-1.4-3.8-1.7-7.3-2    c-2.8-0.2-4.7-0.7-6.1-1.4c-2.2-1.1-2.2-1.1-14.3-0.8c-6.2,0.2-9.4,0-11.9-0.4c-4.4-0.8-8-0.8-10.8,0c-1.2,0.4-2.8,0.7-3.6,0.7    c-1.7,0-14.3,2.8-21.8,4.9c-5.5,1.5-13,4.8-17.9,8c-1.1,0.7-2.9,1.5-3.9,1.8c-3.5,0.9-13.3,8.3-16.2,12.2    c-4.9,6.5-9.6,15.1-11.8,21.6c-1.5,4.3-1.8,5.8-1.9,10c-0.2,5.8,0.2,8.1,2.7,15.9c1.8,5.4,5.7,12.9,8.4,15.9    c1.1,1.2,14.6,8.1,20.8,10.6c7.5,3,19.6,6.5,26.8,7.7c6.6,1.1,15.9,1.8,29.4,2.3c11.1,0.4,25.3-0.6,44.9-3.3    c4.4-0.6,8.1-1,8.2-0.9c0.9,0.9-5.1,8.6-7.2,9.2c-1.9,0.5-6.5,3.3-8.8,5.5c-2.3,2.1-6.6,5.4-8.1,6.2c-0.6,0.3-2.1,1.5-3.3,2.6    c-1.3,1.1-3.1,2.5-4.1,3c-1.6,0.8-1.8,1.1-1.8,2.6c0,1,0.7,3,1.8,5.2c1.5,2.9,1.9,4.4,2.3,7.6c0.5,4.3,0.3,7.4-0.6,9    c-0.9,1.6-11.3,9.1-12.5,9.1c-1.3,0-2.1-1.1-3.2-4.1c-0.4-1.1-1.1-2.5-1.6-3c-0.6-0.6-0.9-2-1.2-4.3c-0.4-4.1-1.3-7.5-2.8-10.1    c-1.7-2.9-2.2-3.1-7.4-1.8c-2.5,0.6-6.4,1.3-8.8,1.4c-6.5,0.5-6.4,0.3-10,11c-3,8.7-4.1,13.2-4.5,18.1c-0.4,4.7-1.1,6.5-3.3,8.9    c-1.9,2-7.5,5.6-9.4,6.1C494.7,242.6,494.5,242.5,493.7,240.6z"/>
	</g>
</g>
</svg>